<svg xmlns:rdf="http://www.w3.org/1999/02/22-rdf-syntax-ns#" xmlns="http://www.w3.org/2000/svg" viewBox="0 0 616.69172 597.72181" height="597.72" width="616.69" version="1.1" xmlns:cc="http://creativecommons.org/ns#" xmlns:dc="http://purl.org/dc/elements/1.1/">
 <g fill="#d0aa4c" transform="translate(-154.57 715.76)">
  <g transform="matrix(.60555 .24410 .24410 -.60555 385.06 -454.53)">
   <g transform="scale(.1)" fill="#d0aa4c">
    <path d="m4622 1320-338.22 81.04c-33.8 8.12-69.41-1.94-94-26.53l-444.3-444.26c-24.59-24.59-34.64-60.199-26.54-94.008l81.05-338.22-658.83-272.93-181.77 296.34c-18.18 29.648-50.46 47.699-85.24 47.699h-628.41c-34.78 0-67.06-18.062-85.24-47.699l-181.77-296.34-658.84 272.93 81.05 338.22c8.11 33.821-1.94 69.418-26.54 94.008l-444.27 444.26c-24.59 24.6-60.2 34.66-94.008 26.53l-338.22-81.04-272.93 658.83 296.33 181.77c29.649 18.18 47.707 50.47 47.707 85.24v628.41c0 34.78-18.066 67.06-47.707 85.24l-296.33 181.8 272.92 658.8 338.22-81c33.797-8.11 69.418 1.94 94.008 26.53l444.22 444.23c24.59 24.59 34.64 60.2 26.53 94.01l-81.04 338.21 658.84 272.93 181.77-296.32c18.18-29.65 50.46-47.71 85.23-47.71h628.43c34.78 0 67.06 18.07 85.24 47.71l181.77 296.32 658.83-272.93-81.04-338.21c-8.11-33.82 1.94-69.42 26.53-94.01l444.23-444.23c24.59-24.59 60.18-34.66 94-26.53l338.22 81.04 272.93-658.82-296.34-181.78c-29.64-18.18-47.71-50.47-47.71-85.24v-628.41c0-34.78 18.07-67.06 47.71-85.24l296.33-181.77-272.92-658.83zm450.28 784.68-321.39 197.14v516.45l321.4 197.15c41.91 25.71 58.92 78.09 40.1 123.52l-338.27 816.56c-18.82 45.43-67.88 70.41-115.69 58.97l-366.81-87.89-365.06 365.07 87.89 366.81c11.46 47.8-13.54 96.86-58.97 115.68l-816.58 338.26c-45.43 18.84-97.8 1.83-123.51-40.1l-197.14-321.39h-516.47l-197.14 321.39c-25.71 41.92-78.08 58.95-123.51 40.1l-816.57-338.26c-45.43-18.82-70.43-67.88-58.97-115.68l87.88-366.81-365.06-365.07-366.8 87.89c-47.801 11.42-96.867-13.54-115.69-58.97l-338.2-816.6c-18.816-45.43-1.8203-97.8 40.102-123.52l321.39-197.15v-516.45l-321.39-197.2c-41.914-25.7-58.914-78.1-40.093-123.5l338.26-816.6c18.821-45.43 67.879-70.42 115.69-58.97l366.8 87.89 365.05-365.06-87.89-366.81c-11.46-47.809 13.54-96.871 58.97-115.68l816.5-338.2c45.43-18.852 97.8-1.832 123.51 40.098l197.14 321.4h516.46l197.15-321.4c18.66-30.43 51.37-47.719 85.28-47.719 12.8 0 25.78 2.4609 38.23 7.6289l816.5 338.27c45.43 18.82 70.43 67.871 58.97 115.68l-87.9 366.81 365.05 365.06 366.81-87.89c47.8-11.44 96.87 13.54 115.69 58.97l338.27 816.57c18.85 45.42 1.85 97.79-40.07 123.51"/>
    <path d="m3930.7 3392.1c-48.9-25.67-67.72-86.12-42.05-135.02 306.78-584.27 199.07-1290.6-268.02-1757.7-584.84-584.84-1536.5-584.84-2121.3 0-584.84 584.83-584.84 1536.4 0 2121.3 472.92 472.93 1210.3 575.24 1793 248.86 48.18-27 109.12-9.8 136.11 38.38 26.98 48.19 9.8 109.13-38.39 136.11-316.75 177.4-690.46 248.97-1052.4 201.49-373.78-49.03-712.6-216.19-979.83-483.42-662.81-662.83-662.81-1741.3 0-2404.1 331.42-331.41 766.75-497.12 1202.1-497.12 435.34 0 870.66 165.71 1202.1 497.12 261.54 261.53 427.65 592.73 480.39 957.8 50.96 352.87-11.79 720.2-176.72 1034.3-25.67 48.9-86.12 67.74-135.02 42.05"/>
    <path d="m3625.5 3615.7c19.56-19.78 45.32-29.68 71.1-29.68 25.41 0 50.83 9.62 70.31 28.9 39.27 38.83 39.62 102.15 0.78 141.42l-5.67 5.71c-39.05 39.04-102.37 39.04-141.43 0-39.05-39.05-39.05-102.37 0-141.42l4.91-4.93"/>
    <path d="m2390.1 3136.9h290.35c132.34 0 240-107.67 240-240s-107.66-240-240-240h-360v480h69.65zm530.35-919.99c0-132.33-107.66-240-240-240h-360v480h360c132.34 0 240-107.66 240-240zm-799.99-240h-23.69c-55.23 0-100-44.78-100-100s44.77-100 100-100h193.32v-85.81c0-55.22 44.77-100 100-100s100 44.78 100 100v85.81h70v-85.81c0-55.22 44.77-100 100-100s100 44.78 100 100v93.17c204.71 37.6 360.35 217.23 360.35 432.64 0 136.82-62.79 259.24-161.04 340 98.26 80.75 161.04 203.17 161.04 339.99 0 215.41-155.64 395.04-360.35 432.64v93.18c0 55.22-44.77 100-100 100s-100-44.78-100-100v-85.82h-70v85.82c0 55.22-44.77 100-100 100s-100-44.78-100-100v-85.82h-193.32c-55.23 0-100-44.78-100-100s44.77-100 100-100h23.69v-1160"/>
    <path d="m1641.1 3476.2c-388.92-388.91-491.04-983.5-254.16-1479.6 23.8-49.83 83.52-70.95 133.33-47.14 49.84 23.8 70.95 83.49 47.15 133.33-200.44 419.75-114 922.87 215.1 1252 207.76 207.77 483.99 322.19 777.81 322.19s570.05-114.41 777.8-322.18c428.89-428.89 428.89-1126.7 0-1555.6-323.35-323.35-819.9-412.87-1235.6-222.73-50.26 23.01-109.57 0.89-132.53-49.35-22.97-50.22-0.88-109.56 49.35-132.53 170.67-78.07 353.98-117.77 539.56-117.77 73.94 0 148.25 6.31 222.25 19 265.67 45.57 507.17 170.73 698.4 361.95 245.54 245.54 380.76 572 380.76 919.25 0 347.23-135.22 673.69-380.76 919.23-245.53 245.53-571.98 380.75-919.22 380.75-347.25 0-673.71-135.23-919.24-380.76"/>
    <path d="m1641 1779-0.78-0.78c-38.93-39.17-38.73-102.49 0.44-141.42 19.51-19.39 45-29.07 70.49-29.07 25.69 0 51.39 9.84 70.93 29.51l0.78 0.78c38.93 39.17 38.73 102.49-0.44 141.42-39.17 38.95-102.48 38.74-141.42-0.44"/>
   </g>
  </g>
  <g>
   <path d="m700.78-253c-3.2862 0-6.51 1.3362-8.835 3.6625-2.3238 2.3238-3.6612 5.5475-3.6612 8.835 0 3.2861 1.3375 6.5102 3.6612 8.8339 2.325 2.3238 5.5488 3.6621 8.835 3.6621 3.2875 0 6.5112-1.3374 8.835-3.6621 2.3375-2.3236 3.6625-5.5478 3.6625-8.8339 0-3.2875-1.325-6.5112-3.6625-8.835-2.3238-2.3262-5.5475-3.6625-8.835-3.6625"/>
   <path d="m396.46-143.03c-12.402 0-22.494-10.091-22.494-22.494 0-12.404 10.091-22.495 22.494-22.495 12.402 0 22.494 10.091 22.494 22.495 0 12.402-10.091 22.494-22.494 22.494zm0-69.981c-26.185 0-47.488 21.302-47.488 47.487 0 26.184 21.302 47.486 47.488 47.486 26.184 0 47.488-21.303 47.488-47.486 0-26.185-21.304-47.487-47.488-47.487"/>
   <path d="m625.67-143.03c-12.402 0-22.494-10.091-22.494-22.494 0-12.404 10.091-22.495 22.494-22.495 12.404 0 22.495 10.091 22.495 22.495 0 12.402-10.09 22.494-22.495 22.494zm0-69.981c-26.184 0-47.486 21.302-47.486 47.487 0 26.184 21.302 47.486 47.486 47.486 26.185 0 47.488-21.303 47.488-47.486 0-26.185-21.302-47.487-47.488-47.487"/>
   <path d="m738.85-427.31c-6.7725-1.3062-13.33 3.1288-14.635 9.9075l-18.162 94.289c-1.1312 5.87-6.2925 10.131-12.271 10.131h-360.62l-48.942-212.86h128.51c6.9025 0 12.498-5.595 12.498-12.496 0-6.9025-5.595-12.496-12.498-12.496h-134.25l-13.329-57.97c-3.9365-17.128-18.961-29.09-36.536-29.09h-61.539c-6.9019 0-12.497 5.595-12.497 12.498 0 6.9012 5.5947 12.496 12.497 12.496h61.54c5.8584 0 10.866 3.9862 12.179 9.6962l84.04 365.5c1.305 5.6752 6.3562 9.6962 12.18 9.6962h318.75c6.9012 0 12.496-5.5961 12.496-12.496 0-6.9012-5.595-12.498-12.496-12.498h-308.8l-8.0462-34.99h354.87c17.938 0 33.42-12.784 36.812-30.398l18.162-94.289c1.305-6.7788-3.13-13.33-9.9075-14.636"/>
  </g>
 </g>
</svg>
